<svg data-name="Group 243" xmlns="http://www.w3.org/2000/svg" width="47.468" height="47.468"><circle data-name="Ellipse 1" cx="23.734" cy="23.734" r="23.734" fill="#bb272d"/><path data-name="Path 16" d="M39.556 15.134a.107.107 0 0 0-.034.069 1.653 1.653 0 0 1-.482.86l-2.786 2.786c-4.265 4.265-8.531 8.565-12.8 12.83l-.069.069-.069.069-1.857 1.857a1.609 1.609 0 0 1-1.273.482 1.658 1.658 0 0 1-1.032-.447c-1.617-1.582-6.983-6.983-8.6-8.6a1.631 1.631 0 0 1-.447-.826.436.436 0 0 0-.034-.206v-.275a1.722 1.722 0 0 1 .31-.826 1.489 1.489 0 0 1 .963-.585.26.26 0 0 0 .138-.034h.31c.034.034.069 0 .138 0a1.613 1.613 0 0 1 .757.31c.069.069.172.138.241.206l7.327 7.327c.034.034.034.069.069.1l.1-.1 10.428-10.422c2-2 3.99-3.99 5.985-5.951a1.6 1.6 0 0 1 2.683.654c.034.069.034.172.069.241a1.674 1.674 0 0 0-.035.412z" fill="#fff"/></svg>